<?xml version="1.0" standalone="no"?>
<!DOCTYPE svg PUBLIC "-//W3C//DTD SVG 20010904//EN"
 "http://www.w3.org/TR/2001/REC-SVG-20010904/DTD/svg10.dtd">
<svg version="1.0" xmlns="http://www.w3.org/2000/svg"
 width="1920.000000pt" height="1080.000000pt" viewBox="0 0 1920.000000 1080.000000"
 preserveAspectRatio="xMidYMid meet">

<g transform="translate(0.000000,1080.000000) scale(0.100000,-0.100000)"
fill="#000000" stroke="none">
<path d="M3910 7427 c-45 -23 -53 -56 -29 -123 61 -176 84 -449 84 -989 -1
-530 -17 -741 -110 -1440 -74 -554 -77 -589 -82 -858 l-5 -258 23 -25 c27 -29
68 -31 100 -5 24 19 24 22 31 273 7 265 11 310 97 968 84 642 95 803 96 1335
0 566 -19 811 -80 1009 -32 107 -70 141 -125 113z"/>
<path d="M7541 7151 c-36 -36 -44 -266 -38 -1037 3 -385 10 -760 16 -834 33
-398 91 -685 205 -1015 85 -247 137 -366 171 -395 24 -20 73 -16 96 7 14 14
34 71 60 174 35 138 49 174 139 356 141 283 222 397 319 447 l31 16 32 -62
c47 -92 61 -123 155 -343 47 -110 101 -233 119 -273 18 -40 50 -111 70 -158
28 -64 44 -89 65 -100 56 -28 117 14 106 73 -2 16 -26 75 -52 133 -26 58 -96
220 -157 360 -180 418 -238 515 -310 527 -86 13 -256 -111 -355 -260 -66 -101
-248 -462 -270 -538 -24 -78 -24 -78 -88 116 -107 325 -156 581 -186 976 -11
155 -14 1575 -3 1717 6 77 5 84 -16 107 -29 31 -81 34 -109 6z"/>
<path d="M5582 5040 c-73 -35 -151 -108 -185 -176 -66 -131 -103 -326 -88
-469 4 -44 6 -82 4 -85 -3 -3 -99 -7 -215 -10 -206 -5 -210 -5 -229 -29 -26
-32 -24 -67 7 -98 l25 -25 229 3 c221 4 229 3 238 -16 18 -39 98 -119 155
-156 71 -46 195 -92 329 -121 156 -33 438 -31 680 5 416 63 543 98 784 216
194 96 244 135 244 190 0 74 -70 96 -136 43 -45 -36 -249 -140 -346 -176 -129
-49 -374 -99 -658 -136 -138 -18 -374 -20 -475 -4 -170 26 -312 80 -390 148
-45 39 -43 44 25 69 54 20 283 200 361 284 30 33 63 76 72 96 22 46 40 179 32
237 -24 174 -109 240 -307 240 -82 0 -100 -3 -156 -30z m258 -133 c31 -11 37
-18 48 -62 18 -69 3 -172 -31 -217 -46 -60 -278 -250 -336 -275 -61 -26 -64
-19 -58 135 9 225 66 356 182 416 36 19 144 20 195 3z"/>
<path d="M9495 4965 c-14 -13 -25 -32 -25 -43 0 -27 53 -178 82 -237 14 -27
39 -88 56 -135 16 -47 46 -120 66 -162 20 -43 52 -113 72 -155 64 -139 73
-157 110 -213 20 -30 44 -71 55 -91 42 -82 149 -66 149 22 0 75 32 265 57 343
15 43 47 113 72 155 25 42 55 94 66 116 20 39 106 115 130 115 20 0 107 -145
192 -320 144 -296 163 -335 193 -382 31 -50 61 -65 105 -54 32 8 46 35 55 110
4 34 22 99 41 145 30 76 38 88 99 137 37 30 71 54 76 54 5 0 29 -33 53 -73 25
-39 71 -107 103 -150 33 -42 82 -114 109 -160 28 -45 68 -104 88 -132 21 -27
51 -70 67 -94 16 -25 41 -48 56 -53 37 -13 80 9 92 45 12 34 -13 88 -88 186
-27 35 -64 91 -83 124 -18 33 -60 95 -92 137 -33 43 -93 129 -135 193 -111
172 -145 185 -262 102 -110 -78 -188 -161 -208 -222 -10 -29 -21 -55 -26 -58
-4 -3 -13 10 -21 28 -54 137 -239 484 -288 541 -23 26 -86 56 -119 56 -73 0
-225 -115 -271 -207 -14 -26 -40 -71 -59 -100 -43 -66 -100 -206 -117 -286
l-13 -62 -17 40 c-9 22 -43 97 -76 167 -32 69 -73 166 -90 215 -17 48 -44 113
-60 144 -15 31 -38 87 -50 124 -35 110 -91 144 -144 90z"/>
<path d="M13655 4678 c-11 -6 -26 -18 -32 -26 -29 -36 -16 -69 116 -302 83
-146 173 -355 226 -525 42 -133 59 -158 105 -158 53 0 72 29 80 126 10 104 10
105 76 245 34 71 68 128 91 151 21 20 55 57 75 81 l37 45 36 -40 c55 -61 113
-166 172 -310 30 -71 65 -151 78 -177 14 -26 25 -59 25 -73 0 -63 90 -89 130
-38 32 42 23 85 -64 282 -104 238 -158 337 -224 411 -63 71 -100 90 -171 90
l-49 0 -106 -116 c-92 -99 -114 -129 -152 -211 -24 -53 -46 -94 -49 -91 -3 2
-30 62 -60 133 -31 71 -89 187 -129 259 -41 72 -85 154 -99 182 -15 29 -36 55
-52 62 -31 14 -34 14 -60 0z"/>
<path d="M12601 4661 c-35 -10 -65 -54 -57 -84 9 -39 150 -222 243 -318 70
-72 86 -94 90 -125 4 -38 3 -40 -39 -62 -24 -12 -74 -49 -112 -82 -107 -93
-180 -108 -346 -71 -112 25 -135 35 -197 82 -73 54 -113 126 -112 199 0 61 17
109 67 191 42 69 83 97 161 110 46 8 66 18 81 36 27 35 25 69 -5 99 -24 23
-31 25 -78 19 -163 -22 -243 -86 -328 -261 -79 -164 -74 -266 23 -414 38 -58
142 -140 214 -168 28 -11 96 -30 153 -42 195 -42 326 -15 448 92 37 32 88 71
113 85 25 15 55 35 67 46 l23 20 63 -62 c110 -108 312 -241 367 -241 54 0 87
47 69 98 -7 21 -30 40 -87 72 -175 97 -383 296 -441 420 -12 25 -39 68 -62 95
-22 27 -45 58 -51 69 -16 31 -109 136 -120 136 -5 0 -26 13 -46 29 -43 34 -67
41 -101 32z"/>
</g>
</svg>
